REM DIRINDEX 1\2\5,1\2\6,1\2\7,1\2\8,1\3\9,1\3\10,1\3\11,1\4\12,1\4\13,1\4\14,1\4\15,1\4\16
REM DIRNAME folder01,folder02,folder03,folder04,folder05,folder06,folder07,folder08,folder09,folder10,folder11,folder12,folder13,folder14,folder15,folder16
TITLE ""
FILE "1200_2_sec04_1291_1304.mp3" MP3
  TRACK 01 AUDIO
    TITLE "0:"
    INDEX 01 00:00:00
  TRACK 02 AUDIO
    TITLE "10:cjc034_02673"
    INDEX 01 00:00:13
  TRACK 03 AUDIO
    TITLE "0:"
    INDEX 01 00:03:12
  TRACK 04 AUDIO
    TITLE "9:cjc034_02674"
    INDEX 01 00:03:19
  TRACK 05 AUDIO
    TITLE "0:"
    INDEX 01 00:04:40
  TRACK 06 AUDIO
    TITLE "10:cjc034_02675"
    INDEX 01 00:05:24
  TRACK 07 AUDIO
    TITLE "0:"
    INDEX 01 00:06:24
  TRACK 08 AUDIO
    TITLE "9:cjc034_02676"
    INDEX 01 00:06:30
  TRACK 09 AUDIO
    TITLE "0:"
    INDEX 01 00:07:43
  TRACK 10 AUDIO
    TITLE "10:cjc034_02677"
    INDEX 01 00:08:26
  TRACK 11 AUDIO
    TITLE "0:"
    INDEX 01 00:10:14
  TRACK 12 AUDIO
    TITLE "9:cjc034_02678"
    INDEX 01 00:10:23
  TRACK 13 AUDIO
    TITLE "0:"
    INDEX 01 00:11:35
  TRACK 14 AUDIO
    TITLE "10:cjc034_02679"
    INDEX 01 00:12:18
  TRACK 15 AUDIO
    TITLE "0:"
    INDEX 01 00:13:18
  TRACK 16 AUDIO
    TITLE "9:cjc034_02680"
    INDEX 01 00:13:22
  TRACK 17 AUDIO
    TITLE "0:"
    INDEX 01 00:14:41
  TRACK 18 AUDIO
    TITLE "10:cjc034_02681"
    INDEX 01 00:15:25
  TRACK 19 AUDIO
    TITLE "0:"
    INDEX 01 00:18:64
  TRACK 20 AUDIO
    TITLE "9:cjc034_02682"
    INDEX 01 00:18:66
  TRACK 21 AUDIO
    TITLE "0:"
    INDEX 01 00:20:08
  TRACK 22 AUDIO
    TITLE "10:cjc034_02683"
    INDEX 01 00:20:67
  TRACK 23 AUDIO
    TITLE "0:"
    INDEX 01 00:22:72
  TRACK 24 AUDIO
    TITLE "9:cjc034_02684"
    INDEX 01 00:23:03
  TRACK 25 AUDIO
    TITLE "0:"
    INDEX 01 00:24:20
  TRACK 26 AUDIO
    TITLE "10:cjc034_02685"
    INDEX 01 00:25:01
  TRACK 27 AUDIO
    TITLE "0:"
    INDEX 01 00:26:62
  TRACK 28 AUDIO
    TITLE "9:cjc034_02686"
    INDEX 01 00:26:67
  TRACK 29 AUDIO
    TITLE "0:"
    INDEX 01 00:28:17
  TRACK 30 AUDIO
    TITLE "10:cjc034_02687"
    INDEX 01 00:28:74
  TRACK 31 AUDIO
    TITLE "0:"
    INDEX 01 00:32:43
  TRACK 32 AUDIO
    TITLE "9:cjc034_02688"
    INDEX 01 00:32:50
  TRACK 33 AUDIO
    TITLE "0:"
    INDEX 01 00:33:60
  TRACK 34 AUDIO
    TITLE "11:cjc034_02689"
    INDEX 01 00:35:33
  TRACK 35 AUDIO
    TITLE "0:"
    INDEX 01 00:40:11
  TRACK 36 AUDIO
    TITLE "10:cjc034_02690"
    INDEX 01 00:41:14
  TRACK 37 AUDIO
    TITLE "0:"
    INDEX 01 00:45:28
  TRACK 38 AUDIO
    TITLE "9:cjc034_02691"
    INDEX 01 00:45:39
  TRACK 39 AUDIO
    TITLE "0:"
    INDEX 01 00:46:43
  TRACK 40 AUDIO
    TITLE "10:cjc034_02692"
    INDEX 01 00:47:27
  TRACK 41 AUDIO
    TITLE "0:"
    INDEX 01 00:49:41
  TRACK 42 AUDIO
    TITLE "9:cjc034_02693"
    INDEX 01 00:49:45
  TRACK 43 AUDIO
    TITLE "0:"
    INDEX 01 00:50:54
  TRACK 44 AUDIO
    TITLE "10:cjc034_02694"
    INDEX 01 00:51:36
  TRACK 45 AUDIO
    TITLE "0:"
    INDEX 01 00:53:58
  TRACK 46 AUDIO
    TITLE "9:cjc034_02695"
    INDEX 01 00:53:62
  TRACK 47 AUDIO
    TITLE "0:"
    INDEX 01 00:54:74
  TRACK 48 AUDIO
    TITLE "10:cjc034_02696"
    INDEX 01 00:55:57
  TRACK 49 AUDIO
    TITLE "0:"
    INDEX 01 00:57:64
  TRACK 50 AUDIO
    TITLE "9:cjc034_02697"
    INDEX 01 00:57:72
  TRACK 51 AUDIO
    TITLE "0:"
    INDEX 01 00:59:10
  TRACK 52 AUDIO
    TITLE "11:cjc034_02698"
    INDEX 01 01:00:55
  TRACK 53 AUDIO
    TITLE "0:"
    INDEX 01 01:05:22
  TRACK 54 AUDIO
    TITLE "10:cjc034_02699"
    INDEX 01 01:06:22
  TRACK 55 AUDIO
    TITLE "0:"
    INDEX 01 01:07:49
  TRACK 56 AUDIO
    TITLE "9:cjc034_02700"
    INDEX 01 01:07:57
  TRACK 57 AUDIO
    TITLE "0:"
    INDEX 01 01:08:68
  TRACK 58 AUDIO
    TITLE "10:cjc034_02701"
    INDEX 01 01:09:50
  TRACK 59 AUDIO
    TITLE "0:"
    INDEX 01 01:10:61
  TRACK 60 AUDIO
    TITLE "9:cjc034_02702"
    INDEX 01 01:10:67
  TRACK 61 AUDIO
    TITLE "0:"
    INDEX 01 01:12:05
